<svg width="283" height="51" viewBox="0 0 283 51" fill="none" xmlns="http://www.w3.org/2000/svg">
<rect x="1.5" y="2.02808" width="46.5682" height="46.5682" rx="23.2841" stroke="#2C292A" stroke-width="3"/>
<mask id="mask0_5403_10366" style="mask-type:alpha" maskUnits="userSpaceOnUse" x="3" y="3" width="44" height="45">
<circle cx="24.7841" cy="25.3122" r="21.7841" fill="#D9D9D9"/>
</mask>
<g mask="url(#mask0_5403_10366)">
</g>
<mask id="mask1_5403_10366" style="mask-type:alpha" maskUnits="userSpaceOnUse" x="3" y="3" width="44" height="45">
<circle cx="24.7841" cy="25.3122" r="21.7841" fill="#D9D9D9"/>
</mask>
<g mask="url(#mask1_5403_10366)">
<rect x="3" y="41.6503" width="38.1222" height="43.5682" transform="rotate(-90 3 41.6503)" fill="#F5F7F8"/>
<rect x="24.7832" y="14.4202" width="5.44602" height="21.7841" transform="rotate(-90 24.7832 14.4202)" fill="#DD2033"/>
<rect x="24.7832" y="25.3121" width="5.44602" height="21.7841" transform="rotate(-90 24.7832 25.3121)" fill="#DD2033"/>
<rect x="3" y="36.2042" width="5.44602" height="43.5682" transform="rotate(-90 3 36.2042)" fill="#DD2033"/>
<rect x="3" y="47.0963" width="5.44602" height="43.5682" transform="rotate(-90 3 47.0963)" fill="#DD2033"/>
<rect x="3" y="25.3121" width="21.7841" height="21.7841" transform="rotate(-90 3 25.3121)" fill="#004692"/>
<path d="M20.1863 16.8406L19.1041 19.2885L16.5556 19.6142L18.4353 21.4528L17.9423 24.102L20.1863 22.5892L22.4302 24.102L21.9372 21.4528L23.8169 19.6142L21.2684 19.2885L20.1863 16.8406Z" fill="#F5F7F8"/>
<path d="M20.1863 2.31787L19.1041 4.76574L16.5556 5.09145L18.4353 6.9301L17.9423 9.57923L20.1863 8.06645L22.4302 9.57923L21.9372 6.9301L23.8169 5.09145L21.2684 4.76574L20.1863 2.31787Z" fill="#F5F7F8"/>
<path d="M15.3454 9.57923L14.2632 12.0271L11.7147 12.3528L13.5944 14.1915L13.1014 16.8406L15.3453 15.3278L17.5893 16.8406L17.0963 14.1915L18.976 12.3528L16.4275 12.0271L15.3454 9.57923Z" fill="#F5F7F8"/>
<path d="M9.89934 16.8406L8.81713 19.2885L6.26864 19.6142L8.14834 21.4528L7.6554 24.102L9.89933 22.5892L12.1432 24.102L11.6503 21.4528L13.53 19.6142L10.9815 19.2885L9.89934 16.8406Z" fill="#F5F7F8"/>
<path d="M9.89934 2.31787L8.81713 4.76574L6.26864 5.09145L8.14834 6.9301L7.6554 9.57923L9.89933 8.06645L12.1432 9.57923L11.6503 6.9301L13.53 5.09145L10.9815 4.76574L9.89934 2.31787Z" fill="#F5F7F8"/>
<path d="M5.05844 9.57923L3.97622 12.0271L1.42773 12.3528L3.30744 14.1915L2.81449 16.8406L5.05842 15.3278L7.30234 16.8406L6.8094 14.1915L8.6891 12.3528L6.14061 12.0271L5.05844 9.57923Z" fill="#F5F7F8"/>
</g>
<rect x="34.709" y="2.02808" width="46.5682" height="46.5682" rx="23.2841" stroke="#2C292A" stroke-width="3"/>
<mask id="mask2_5403_10366" style="mask-type:alpha" maskUnits="userSpaceOnUse" x="36" y="3" width="44" height="45">
<circle cx="57.9933" cy="25.3122" r="21.7841" transform="rotate(180 57.9933 25.3122)" fill="#D9D9D9"/>
</mask>
<g mask="url(#mask2_5403_10366)">
<rect x="36.209" y="3.52808" width="43.5682" height="43.5682" fill="#A00009"/>
<rect x="79.7773" y="14.4202" width="21.7841" height="43.5682" transform="rotate(90 79.7773 14.4202)" fill="#F1B434"/>
<path fill-rule="evenodd" clip-rule="evenodd" d="M49.8846 15.4287H51.0948V16.2355L52.305 16.2355V17.4458H51.0948V18.5764C51.4508 18.3704 51.8642 18.2526 52.305 18.2526C53.6418 18.2526 54.7255 19.3362 54.7255 20.673C54.7255 21.3899 54.4138 22.034 53.9186 22.4772V23.4969H47.0607V22.4771C46.5655 22.0339 46.2539 21.3899 46.2539 20.673C46.2539 19.3362 47.3376 18.2526 48.6744 18.2526C49.1152 18.2526 49.5286 18.3704 49.8846 18.5764V17.4458H48.6744V16.2355L49.8846 16.2355V15.4287ZM50.4897 19.072L50.4785 19.0594H50.5009L50.4897 19.072ZM50.4785 22.2867L50.4897 22.274L50.5009 22.2867H50.4785Z" fill="#E26E00"/>
<path d="M45.043 23.4969L55.935 23.4969L55.935 29.4403C55.935 31.8326 54.4829 33.9855 52.2648 34.8817C51.1256 35.342 49.8523 35.342 48.7132 34.8817C46.4951 33.9855 45.043 31.8326 45.043 29.4403L45.043 23.4969Z" fill="#F5F7F8"/>
<mask id="mask3_5403_10366" style="mask-type:alpha" maskUnits="userSpaceOnUse" x="45" y="23" width="11" height="13">
<path d="M45.043 23.4969H55.935V29.4403C55.935 31.8326 54.4829 33.9855 52.2648 34.8817C51.1256 35.342 49.8523 35.342 48.7132 34.8817C46.4951 33.9855 45.043 31.8326 45.043 29.4403V23.4969Z" fill="#F5F7F8"/>
</mask>
<g mask="url(#mask3_5403_10366)">
<rect x="45.043" y="23.4969" width="5.44602" height="6.05114" fill="#DD2033"/>
<rect x="45.043" y="29.5481" width="5.44602" height="6.05114" fill="#E26E00"/>
<rect x="50.4902" y="29.5481" width="5.44602" height="6.05114" fill="#DD2033"/>
</g>
<path d="M57.1453 23.4969H58.9607V34.9941H57.1453V23.4969Z" fill="#F5F7F8"/>
<path d="M42.0176 23.497H43.8329V34.9941H42.0176V23.497Z" fill="#F5F7F8"/>
</g>
<rect x="67.916" y="2.02808" width="46.5682" height="46.5682" rx="23.2841" stroke="#2C292A" stroke-width="3"/>
<mask id="mask4_5403_10366" style="mask-type:alpha" maskUnits="userSpaceOnUse" x="69" y="3" width="44" height="45">
<circle cx="91.2001" cy="25.3122" r="21.7841" fill="#D9D9D9"/>
</mask>
<g mask="url(#mask4_5403_10366)">
<rect x="69.416" y="47.0963" width="14.5227" height="43.5682" transform="rotate(-90 69.416 47.0963)" fill="#DD2033"/>
<rect x="69.416" y="32.5735" width="14.5227" height="43.5682" transform="rotate(-90 69.416 32.5735)" fill="#004692"/>
<rect x="69.416" y="18.0508" width="14.5227" height="43.5682" transform="rotate(-90 69.416 18.0508)" fill="#F5F7F8"/>
</g>
<rect x="101.125" y="2.02808" width="46.5682" height="46.5682" rx="23.2841" stroke="#2C292A" stroke-width="3"/>
<mask id="mask5_5403_10366" style="mask-type:alpha" maskUnits="userSpaceOnUse" x="102" y="3" width="45" height="45">
<circle cx="124.409" cy="25.3122" r="21.7841" fill="#D9D9D9"/>
</mask>
<g mask="url(#mask5_5403_10366)">
<rect x="102.625" y="47.0963" width="12.1023" height="43.5682" transform="rotate(-90 102.625 47.0963)" fill="#009B77"/>
<rect x="102.625" y="34.994" width="19.3636" height="43.5682" transform="rotate(-90 102.625 34.994)" fill="#F5F7F8"/>
<rect x="102.625" y="15.6304" width="12.1023" height="43.5682" transform="rotate(-90 102.625 15.6304)" fill="#FF9E42"/>
<path fill-rule="evenodd" clip-rule="evenodd" d="M132.276 25.3122C132.276 29.6567 128.754 33.1786 124.409 33.1786C120.065 33.1786 116.543 29.6567 116.543 25.3122C116.543 20.9676 120.065 17.4457 124.409 17.4457C128.754 17.4457 132.276 20.9676 132.276 25.3122ZM125.907 30.5498C125.431 30.6855 124.929 30.7582 124.409 30.7582C123.89 30.7582 123.388 30.6855 122.912 30.5498L124.409 28.8709L125.907 30.5498ZM126.125 30.4823C127.158 30.1398 128.053 29.4966 128.708 28.6565L126.399 28.1921L126.125 30.4823ZM128.765 28.5821C129.45 27.6715 129.855 26.5392 129.855 25.3122C129.855 25.3121 129.855 25.3122 129.855 25.3122C129.855 24.0852 129.45 22.9529 128.765 22.0423L127.63 24.2119L129.855 25.3122L127.63 26.4125L128.765 28.5821ZM128.708 21.9679C128.053 21.1278 127.158 20.4846 126.126 20.142L126.399 22.4322L128.708 21.9679ZM125.907 20.0745L124.409 21.7534L122.912 20.0745C123.388 19.9388 123.89 19.8661 124.409 19.8661C124.929 19.8661 125.431 19.9388 125.907 20.0745ZM122.693 20.142C121.661 20.4845 120.765 21.1278 120.111 21.9679L122.42 22.4322L122.693 20.142ZM120.054 22.0423C119.369 22.9529 118.963 24.0851 118.963 25.3121C118.963 25.3121 118.963 25.3121 118.963 25.3121C118.963 26.5391 119.369 27.6714 120.054 28.582L121.189 26.4125L118.963 25.3121L121.189 24.2118L120.054 22.0423ZM120.111 28.6564C120.765 29.4965 121.661 30.1398 122.693 30.4823L122.42 28.1921L120.111 28.6564Z" fill="#004692"/>
</g>
<mask id="mask6_5403_10366" style="mask-type:alpha" maskUnits="userSpaceOnUse" x="135" y="3" width="45" height="45">
<circle cx="157.616" cy="25.3122" r="21.7841" fill="#D9D9D9"/>
</mask>
<g mask="url(#mask6_5403_10366)">
<rect x="135.832" y="47.0963" width="13.3125" height="43.5682" transform="rotate(-90 135.832 47.0963)" fill="#6DA544"/>
<rect x="135.832" y="33.7837" width="16.9432" height="43.5682" transform="rotate(-90 135.832 33.7837)" fill="#F5F7F8"/>
<rect x="135.832" y="16.8406" width="13.3125" height="43.5682" transform="rotate(-90 135.832 16.8406)" fill="black"/>
<path d="M135.832 8.97412V41.6503H137.042L144.304 36.2042L158.826 25.3122L144.304 14.4201L137.042 8.97412H135.832Z" fill="#D80027"/>
</g>
<rect x="-1.5" y="1.5" width="46.5682" height="46.5682" rx="23.2841" transform="matrix(1 0 0 -1 169.041 50.0963)" stroke="#2C292A" stroke-width="3"/>
<mask id="mask7_5403_10366" style="mask-type:alpha" maskUnits="userSpaceOnUse" x="169" y="3" width="44" height="45">
<circle cx="21.7841" cy="21.7841" r="21.7841" transform="matrix(1 0 0 -1 169.041 47.0963)" fill="#D9D9D9"/>
</mask>
<g mask="url(#mask7_5403_10366)">
<rect width="14.5227" height="43.5682" transform="matrix(1 0 0 -1 169.041 47.0963)" fill="#004692"/>
<rect width="14.5227" height="43.5682" transform="matrix(1 0 0 -1 183.564 47.0963)" fill="#F5F7F8"/>
<rect width="14.5227" height="43.5682" transform="matrix(1 0 0 -1 198.086 47.0963)" fill="#DD2033"/>
</g>
<rect x="200.75" y="2.02808" width="46.5682" height="46.5682" rx="23.2841" stroke="#2C292A" stroke-width="3"/>
<mask id="mask8_5403_10366" style="mask-type:alpha" maskUnits="userSpaceOnUse" x="202" y="3" width="44" height="45">
<circle cx="224.034" cy="25.3122" r="21.7841" fill="#D9D9D9"/>
</mask>
<g mask="url(#mask8_5403_10366)">
<rect x="202.25" y="3.52808" width="43.5682" height="43.5682" fill="#005B33"/>
<path d="M225.925 19.7887L226.611 15.3811L229.41 18.8551L233.653 18.2801L231.42 22.0509L233.356 26.1031L229.091 24.6356L226.131 28.039L225.782 23.5615L221.963 21.4124L225.925 19.7887Z" fill="#F5F7F8"/>
<path d="M226.152 33.1787C227.325 33.1787 228.45 32.9826 229.496 32.6224C227.721 34.8078 225.012 36.2043 221.977 36.2043C216.63 36.2043 212.295 31.8696 212.295 26.5225C212.295 22.4988 214.749 19.0483 218.243 17.5869C216.942 19.2219 216.168 21.2717 216.168 23.4969C216.168 28.844 220.638 33.1787 226.152 33.1787Z" fill="#F5F7F8"/>
</g>
<rect x="233.957" y="2.02808" width="46.5682" height="46.5682" rx="23.2841" stroke="#2C292A" stroke-width="3"/>
<mask id="mask9_5403_10366" style="mask-type:alpha" maskUnits="userSpaceOnUse" x="235" y="3" width="45" height="45">
<circle cx="257.241" cy="25.3122" r="21.7841" fill="#D9D9D9"/>
</mask>
<g mask="url(#mask9_5403_10366)">
<rect x="235.457" y="3.52808" width="43.5682" height="43.5682" fill="#008259"/>
<path d="M257.241 11.9996L275.395 25.3121L257.241 38.6246L239.088 25.3121L257.241 11.9996Z" fill="#F1B434"/>
<path d="M257.544 33.7838C262.056 33.7838 265.713 29.9909 265.713 25.3122C265.713 20.6334 262.056 16.8406 257.544 16.8406C253.032 16.8406 249.375 20.6334 249.375 25.3122C249.375 29.9909 253.032 33.7838 257.544 33.7838Z" fill="#004692"/>
<path d="M249.496 23.8453C250.532 23.6169 251.605 23.4969 252.702 23.4969C257.504 23.4969 261.841 25.7954 264.685 29.4274C265.24 28.3941 265.592 27.2279 265.687 25.9865C262.352 22.5769 257.765 20.4713 252.702 20.4713C252.05 20.4713 251.405 20.5063 250.77 20.5745C250.14 21.5413 249.697 22.6503 249.496 23.8453Z" fill="#F5F7F8"/>
</g>
</svg>
