<svg width="45" height="44" viewBox="0 0 45 44" fill="none" xmlns="http://www.w3.org/2000/svg">
<mask id="mask0_3445_26545" style="mask-type:alpha" maskUnits="userSpaceOnUse" x="0" y="0" width="45" height="44">
<circle cx="22.7607" cy="21.7841" r="21.7841" fill="#D9D9D9"/>
</mask>
<g mask="url(#mask0_3445_26545)">
<rect x="0.976562" width="43.5682" height="43.5682" fill="#008259"/>
<path d="M22.7608 8.47168L40.9142 21.7842L22.7608 35.0967L4.60742 21.7842L22.7608 8.47168Z" fill="#F1B434"/>
<path d="M23.0636 30.2557C27.5752 30.2557 31.2326 26.4628 31.2326 21.7841C31.2326 17.1054 27.5752 13.3125 23.0636 13.3125C18.5519 13.3125 14.8945 17.1054 14.8945 21.7841C14.8945 26.4628 18.5519 30.2557 23.0636 30.2557Z" fill="#004692"/>
<path d="M15.0156 20.3171C16.0519 20.0887 17.1247 19.9687 18.2217 19.9687C23.0231 19.9687 27.3604 22.2672 30.2048 25.8992C30.7596 24.8659 31.1119 23.6997 31.2062 22.4583C27.8716 19.0487 23.2848 16.9431 18.2217 16.9431C17.5692 16.9431 16.9246 16.9781 16.2895 17.0463C15.6594 18.0131 15.2168 19.1221 15.0156 20.3171Z" fill="#F5F7F8"/>
</g>
</svg>
