<svg width="44" height="44" viewBox="0 0 44 44" fill="none" xmlns="http://www.w3.org/2000/svg">
<mask id="mask0_3445_26544" style="mask-type:alpha" maskUnits="userSpaceOnUse" x="0" y="0" width="44" height="44">
<circle cx="22.1923" cy="21.7841" r="21.7841" fill="#D9D9D9"/>
</mask>
<g mask="url(#mask0_3445_26544)">
<rect x="0.408203" width="43.5682" height="43.5682" fill="#005B33"/>
<path d="M24.0834 16.2606L24.7697 11.853L27.5678 15.327L31.811 14.752L29.5781 18.5228L31.5144 22.575L27.2494 21.1075L24.2895 24.5109L23.9404 20.0335L20.1211 17.8843L24.0834 16.2606Z" fill="#F5F7F8"/>
<path d="M24.3102 29.6506C25.483 29.6506 26.6085 29.4545 27.6539 29.0943C25.8787 31.2798 23.1699 32.6762 20.1349 32.6762C14.7878 32.6762 10.4531 28.3415 10.4531 22.9944C10.4531 18.9707 12.9077 15.5203 16.4012 14.0588C15.0999 15.6939 14.3258 17.7437 14.3258 19.9688C14.3258 25.3159 18.7959 29.6506 24.3102 29.6506Z" fill="#F5F7F8"/>
</g>
</svg>
