<svg width="195" height="195" viewBox="0 0 195 195" fill="none" xmlns="http://www.w3.org/2000/svg">
<g filter="url(#filter0_d_2593_53172)">
<circle cx="97.5126" cy="93.5097" r="83.5126" fill="#2C292A"/>
<circle cx="97.5126" cy="93.5097" r="78.6853" stroke="#2C292A" stroke-width="9.65464"/>
</g>
<circle cx="97.5122" cy="93.5092" r="75.7889" fill="#2C292A" stroke="#FBB723" stroke-width="1.93093"/>
<circle cx="38.136" cy="93.9921" r="1.93093" fill="white"/>
<circle cx="155.923" cy="93.9921" r="1.93093" fill="white"/>
<path d="M34.4142 74.9436L34.7231 73.5397L40.8385 74.8095C41.4893 74.9446 42.0323 75.2168 42.4676 75.626C42.9 76.0346 43.1991 76.545 43.3651 77.1572C43.528 77.7688 43.5278 78.4459 43.3644 79.1886C43.2017 79.9283 42.9173 80.5448 42.5112 81.0382C42.1021 81.531 41.6143 81.878 41.0478 82.0792C40.4783 82.2798 39.8681 82.3126 39.2174 82.1775L33.1019 80.9077L33.4098 79.5084L39.4118 80.7546C39.8325 80.8419 40.2265 80.8275 40.594 80.7112C40.962 80.5919 41.2774 80.3811 41.5401 80.0789C41.7998 79.7761 41.9811 79.3907 42.0841 78.9228C42.1877 78.4518 42.1848 78.0266 42.0752 77.6471C41.9633 77.2639 41.7638 76.9479 41.4768 76.6988C41.1904 76.4468 40.8368 76.2771 40.4161 76.1898L34.4142 74.9436Z" fill="white"/>
<path d="M42.7629 55.8917L51.027 60.5698L50.3496 61.699L41.8057 62.4075L41.7603 62.4831L47.8213 65.914L47.0842 67.1427L38.8201 62.4646L39.5023 61.3273L48.0567 60.6194L48.102 60.5439L42.033 57.1084L42.7629 55.8917Z" fill="white"/>
<path d="M51.6188 45.3388L58.4442 51.9414L57.4186 52.9419L50.5931 46.3393L51.6188 45.3388Z" fill="white"/>
<path d="M60.1187 39.7579L59.458 38.7163L65.7639 34.9414L66.4246 35.9829L63.8824 37.5048L68.3086 44.4823L67.0832 45.2158L62.657 38.2384L60.1187 39.7579Z" fill="white"/>
<path d="M78.8149 39.5193L76.2513 30.3755L82.007 28.8527L82.34 30.0403L77.9694 31.1966L78.7505 33.9826L82.8208 32.9057L83.1525 34.0889L79.0822 35.1658L79.8671 37.9652L84.2915 36.7946L84.6244 37.9822L78.8149 39.5193Z" fill="white"/>
<path d="M97.1955 36.6294L94.1226 36.5378L94.4224 27.0462L97.5927 27.1407C98.5227 27.1684 99.3155 27.3822 99.9709 27.7822C100.626 28.179 101.121 28.7365 101.454 29.4547C101.79 30.1698 101.942 31.0202 101.911 32.0058C101.88 32.9945 101.672 33.8388 101.288 34.5387C100.907 35.2386 100.371 35.77 99.6792 36.1329C98.9874 36.4926 98.1595 36.6582 97.1955 36.6294ZM95.5943 35.3292L97.1562 35.3757C97.8792 35.3973 98.4845 35.2793 98.972 35.0216C99.4597 34.7609 99.8306 34.3746 100.085 33.8626C100.339 33.3475 100.478 32.7146 100.502 31.9638C100.526 31.2192 100.427 30.5838 100.205 30.0576C99.9867 29.5315 99.6485 29.1271 99.1904 28.8444C98.7323 28.5617 98.1572 28.41 97.4651 28.3894L95.8151 28.3402L95.5943 35.3292Z" fill="white"/>
<path d="M120.273 41.4296L125.023 33.2065L130.25 36.0562L129.633 37.1242L125.664 34.9603L124.217 37.4658L127.913 39.4809L127.299 40.545L123.602 38.5298L122.148 41.0473L126.166 43.2378L125.549 44.3058L120.273 41.4296Z" fill="white"/>
<path d="M133.399 49.7308L140.225 43.1282L141.25 44.1287L135.311 49.8737L138.392 52.8785L137.505 53.7361L133.399 49.7308Z" fill="white"/>
<path d="M144.578 63.0072L143.079 60.3229L151.481 55.8966L153.027 58.6659C153.481 59.4783 153.702 60.2646 153.691 61.0249C153.683 61.7837 153.452 62.4833 152.999 63.1236C152.551 63.7652 151.89 64.3158 151.017 64.7755C150.142 65.2366 149.302 65.4749 148.497 65.4905C147.693 65.5088 146.956 65.3104 146.285 64.8952C145.617 64.4786 145.048 63.8493 144.578 63.0072ZM144.885 60.9904L145.647 62.3548C146 62.9864 146.413 63.448 146.887 63.7395C147.364 64.0297 147.891 64.1576 148.466 64.1234C149.044 64.0877 149.666 63.8948 150.33 63.5447C150.989 63.1974 151.491 62.7989 151.834 62.349C152.179 61.9018 152.357 61.4117 152.367 60.8788C152.378 60.3459 152.214 59.7771 151.876 59.1725L151.072 57.7312L144.885 60.9904Z" fill="white"/>
<path d="M158.081 73.1422L159.292 72.9035L160.795 80.0975L159.585 80.3362L158.979 77.4359L150.872 79.0351L150.58 77.6371L158.687 76.0379L158.081 73.1422Z" fill="white"/>
<path d="M159.668 111.658L159.359 113.062L153.244 111.792C152.593 111.657 152.05 111.385 151.614 110.976C151.182 110.567 150.883 110.057 150.717 109.445C150.554 108.833 150.554 108.156 150.718 107.413C150.88 106.674 151.165 106.057 151.571 105.564C151.98 105.071 152.468 104.724 153.034 104.523C153.604 104.322 154.214 104.289 154.865 104.424L160.98 105.694L160.672 107.094L154.67 105.847C154.25 105.76 153.855 105.774 153.488 105.891C153.12 106.01 152.805 106.221 152.542 106.523C152.282 106.826 152.101 107.211 151.998 107.679C151.894 108.15 151.897 108.575 152.007 108.955C152.119 109.338 152.318 109.654 152.605 109.903C152.892 110.155 153.245 110.325 153.666 110.412L159.668 111.658Z" fill="white"/>
<path d="M151.317 130.711L143.053 126.033L143.73 124.903L152.274 124.195L152.32 124.119L146.259 120.688L146.996 119.46L155.26 124.138L154.578 125.275L146.023 125.983L145.978 126.059L152.047 129.494L151.317 130.711Z" fill="white"/>
<path d="M142.463 141.263L135.638 134.66L136.663 133.66L143.489 140.262L142.463 141.263Z" fill="white"/>
<path d="M133.963 146.845L134.624 147.886L128.318 151.661L127.657 150.619L130.2 149.098L125.773 142.12L126.999 141.387L131.425 148.364L133.963 146.845Z" fill="white"/>
<path d="M115.267 147.083L117.831 156.227L112.075 157.75L111.742 156.562L116.113 155.406L115.332 152.62L111.261 153.697L110.93 152.514L115 151.437L114.215 148.637L109.791 149.808L109.458 148.62L115.267 147.083Z" fill="white"/>
<path d="M96.8866 149.972L99.9595 150.064L99.6596 159.556L96.4894 159.461C95.5593 159.433 94.7666 159.22 94.1112 158.82C93.4557 158.423 92.9614 157.865 92.6284 157.147C92.2923 156.432 92.1397 155.582 92.1709 154.596C92.2021 153.607 92.4097 152.763 92.7937 152.063C93.1746 151.363 93.711 150.832 94.4028 150.469C95.0946 150.109 95.9225 149.944 96.8866 149.972ZM98.4878 151.273L96.9258 151.226C96.2028 151.205 95.5975 151.323 95.11 151.58C94.6224 151.841 94.2514 152.227 93.9971 152.739C93.7427 153.254 93.6036 153.887 93.5799 154.638C93.5564 155.383 93.6554 156.018 93.8769 156.544C94.0953 157.07 94.4336 157.475 94.8916 157.757C95.3497 158.04 95.9248 158.192 96.617 158.212L98.267 158.262L98.4878 151.273Z" fill="white"/>
<path d="M73.8092 145.172L69.0591 153.395L63.8316 150.546L64.4485 149.478L68.418 151.642L69.8653 149.136L66.1686 147.121L66.7832 146.057L70.48 148.072L71.9342 145.555L67.9158 143.364L68.5328 142.296L73.8092 145.172Z" fill="white"/>
<path d="M60.6827 136.872L53.8573 143.474L52.8317 142.474L58.7706 136.729L55.6905 133.724L56.577 132.866L60.6827 136.872Z" fill="white"/>
<path d="M49.5041 123.595L51.0027 126.279L42.601 130.705L41.0549 127.936C40.6014 127.124 40.3801 126.337 40.391 125.577C40.3992 124.818 40.6297 124.119 41.0828 123.478C41.5315 122.837 42.1921 122.286 43.0646 121.826C43.9398 121.365 44.78 121.127 45.5853 121.111C46.3892 121.093 47.1264 121.291 47.7971 121.707C48.465 122.123 49.034 122.753 49.5041 123.595ZM49.1966 125.611L48.4349 124.247C48.0823 123.615 47.6689 123.154 47.1946 122.862C46.7177 122.572 46.1914 122.444 45.6159 122.478C45.0377 122.514 44.4163 122.707 43.7517 123.057C43.0926 123.404 42.5913 123.803 42.2479 124.253C41.9029 124.7 41.7252 125.19 41.7148 125.723C41.7044 126.256 41.868 126.825 42.2055 127.429L43.0102 128.871L49.1966 125.611Z" fill="white"/>
<path d="M36.0005 113.46L34.7905 113.699L33.2866 106.505L34.4967 106.266L35.103 109.167L43.2097 107.567L43.5019 108.965L35.3952 110.564L36.0005 113.46Z" fill="white"/>
<g filter="url(#filter1_d_2593_53172)">
<circle cx="97.5113" cy="93.5098" r="41.9977" fill="#2C292A"/>
</g>
<path d="M99.9258 108.474L114.408 93.9925L99.9258 79.5105" stroke="url(#paint0_linear_2593_53172)" stroke-width="5.79278" stroke-linecap="round" stroke-linejoin="round"/>
<path d="M79.6504 108.474L94.1323 93.9923L79.6504 79.5104" stroke="url(#paint1_linear_2593_53172)" stroke-width="5.79278" stroke-linecap="round" stroke-linejoin="round"/>
<defs>
<filter id="filter0_d_2593_53172" x="0.483508" y="0.342433" width="194.058" height="194.058" filterUnits="userSpaceOnUse" color-interpolation-filters="sRGB">
<feFlood flood-opacity="0" result="BackgroundImageFix"/>
<feColorMatrix in="SourceAlpha" type="matrix" values="0 0 0 0 0 0 0 0 0 0 0 0 0 0 0 0 0 0 127 0" result="hardAlpha"/>
<feOffset dy="3.86186"/>
<feGaussianBlur stdDeviation="6.75825"/>
<feComposite in2="hardAlpha" operator="out"/>
<feColorMatrix type="matrix" values="0 0 0 0 0 0 0 0 0 0 0 0 0 0 0 0 0 0 0.33 0"/>
<feBlend mode="normal" in2="BackgroundImageFix" result="effect1_dropShadow_2593_53172"/>
<feBlend mode="normal" in="SourceGraphic" in2="effect1_dropShadow_2593_53172" result="shape"/>
</filter>
<filter id="filter1_d_2593_53172" x="45.859" y="41.8574" width="103.305" height="103.305" filterUnits="userSpaceOnUse" color-interpolation-filters="sRGB">
<feFlood flood-opacity="0" result="BackgroundImageFix"/>
<feColorMatrix in="SourceAlpha" type="matrix" values="0 0 0 0 0 0 0 0 0 0 0 0 0 0 0 0 0 0 127 0" result="hardAlpha"/>
<feOffset/>
<feGaussianBlur stdDeviation="4.82732"/>
<feComposite in2="hardAlpha" operator="out"/>
<feColorMatrix type="matrix" values="0 0 0 0 0.0666667 0 0 0 0 0.0622222 0 0 0 0 0.0637036 0 0 0 1 0"/>
<feBlend mode="normal" in2="BackgroundImageFix" result="effect1_dropShadow_2593_53172"/>
<feBlend mode="normal" in="SourceGraphic" in2="effect1_dropShadow_2593_53172" result="shape"/>
</filter>
<linearGradient id="paint0_linear_2593_53172" x1="107.167" y1="79.5105" x2="107.167" y2="108.474" gradientUnits="userSpaceOnUse">
<stop stop-color="#FBB723"/>
<stop offset="1" stop-color="#503803"/>
</linearGradient>
<linearGradient id="paint1_linear_2593_53172" x1="86.8914" y1="79.5104" x2="86.8914" y2="108.474" gradientUnits="userSpaceOnUse">
<stop stop-color="#FBB723"/>
<stop offset="1" stop-color="#503803"/>
</linearGradient>
</defs>
</svg>
