<svg xmlns="http://www.w3.org/2000/svg" xmlns:xlink="http://www.w3.org/1999/xlink" viewBox="0 0 788.12 105.51"><defs><style>.cls-1{fill:#2c292a;}.cls-2{fill:#fbb723;}.cls-3{fill:url(#linear-gradient);}</style><linearGradient id="linear-gradient" x1="197.96" y1="26.77" x2="197.96" y2="1.39" gradientUnits="userSpaceOnUse"><stop offset="0" stop-color="#fb9823"/><stop offset="1" stop-color="#fbb723"/></linearGradient></defs><g id="Layer_2" data-name="Layer 2"><g id="Layer_1-2" data-name="Layer 1"><path id="l1" class="cls-1" d="M63.4,60.64c0,8.45-1.67,14.83-5,19.09s-8.53,6.41-15.59,6.41S30.58,84,27.3,79.73s-4.93-10.64-4.93-19.09V.07H0V59.45Q0,81.83,10.9,93.61T42.83,105.4q21,0,32-11.79t11-34.16V.07H63.4Z"/><path id="l2" class="cls-1" d="M143.43,27.84a31.89,31.89,0,0,0-14,2.76,28.38,28.38,0,0,0-9.69,7.69V28.74H99.43V105.4h21V66.18q0-10,4.48-15.51t12.68-5.52q15.51,0,15.51,19.84V105.4h21V63.79q0-19.23-8.65-27.6T143.43,27.84Z"/><path id="l4" class="cls-1" d="M245.19,86c-1.15-1.18-1.72-3.13-1.72-5.82V46.59h23V28.84h-23V1.09h-21V83.58q0,21.94,21.93,21.93h23V87.75H250.92C248.25,87.77,246.34,87.16,245.19,86Z"/><path id="l5" class="cls-1" d="M331.15,31.49A44.25,44.25,0,0,0,310.63,27a41.11,41.11,0,0,0-20.22,4.83,34,34,0,0,0-13.56,13.74A42.72,42.72,0,0,0,272,66.33,41.39,41.39,0,0,0,277,87a33.49,33.49,0,0,0,14.33,13.64q9.31,4.78,22.15,4.79a41.3,41.3,0,0,0,17.46-3.51,31.44,31.44,0,0,0,12.23-9.62A30.32,30.32,0,0,0,349,78.58H328.24a13.08,13.08,0,0,1-5.6,8.14A19.29,19.29,0,0,1,312,89.48q-8.07,0-12.68-4.78t-5.37-13.13V71h55.63a37.56,37.56,0,0,0,.59-7.15A37.73,37.73,0,0,0,345,44.37,33.44,33.44,0,0,0,331.15,31.49ZM294.38,57.23A16.1,16.1,0,0,1,300,46.57a17.35,17.35,0,0,1,11.56-3.94,18.25,18.25,0,0,1,11.86,3.79q4.69,3.81,5.75,10.81Z"/><path id="l6" class="cls-1" d="M417.29,37.29q-8.21-10.45-23.13-10.44a35,35,0,0,0-18.27,4.84,33,33,0,0,0-12.68,13.72,44.23,44.23,0,0,0-4.54,20.51,45.34,45.34,0,0,0,4.54,20.74,33.43,33.43,0,0,0,12.6,13.81,34.75,34.75,0,0,0,18.2,4.85q15.08,0,23.87-11.49l2.1,10.59h18.34V0h-21Zm-4.76,44.83a18.29,18.29,0,0,1-27.23-.07q-5.15-6.12-5.15-16c0-6.56,1.7-11.88,5.15-16a18.22,18.22,0,0,1,27.23,0q5.06,6.12,5.07,16.11T412.53,82.12Z"/><path id="l7" class="cls-2" d="M477,62h49.38V43.66H477V20.24h49.38V1H454.58V105.42h71.76V86.18H477Z"/><path id="l8" class="cls-2" d="M562.13,1H539.76V105.42H603.6V86.18H562.13Z"/><path id="l9" class="cls-2" d="M679.39,7.63Q667.38,1,651.72,1H615.47V105.42h36.25q15.64,0,27.67-6.64a45.93,45.93,0,0,0,18.49-18.5,55.49,55.49,0,0,0,6.49-27.07,55.59,55.59,0,0,0-6.49-27.08A46.18,46.18,0,0,0,679.39,7.63Zm-5.67,70q-7.85,9.16-22,9.17H637.84V19.64h13.88q14.17,0,22,9.18t7.83,24.39Q681.55,68.42,673.72,77.6Z"/><path id="l10" class="cls-2" d="M705.48,1V20.24l52.5.11L738.36,30.73a5.17,5.17,0,0,0-2.76,4.57v70.12H758V20.35h0v-.11h30.14V1Z"/><path class="cls-1" d="M208.52,28.84H187.41v76.67h21.11Z"/><g id="i-dot"><path class="cls-3" d="M187.45,1.09V27l18.27-9.65a5.16,5.16,0,0,0,2.76-4.58V1.09Z"/></g></g></g></svg>